# xmcd
#
# Track frame offsets:
#	150
#	42284
#	52012
#	66456
#	84541
#	100586
#	119473
#	146196
#	159926
#	186032
#	211946
#	234274
#	251100
#	275548
#	296622
#	323793
#
# Disc length: 4706 seconds
#
# Revision: 2
# Processed by: cddbd v1.5.2PL0 Copyright (c) Steve Scherf et al.
# Submitted via: EZCDAudioConverter 2.1.7.1
#
DISCID=ed126010
DTITLE=V/A - I'm A Freak, Baby... 1/3
DYEAR=2016
DGENRE=
TTITLE0=Stray - All In Your Mind
TTITLE1=Open Mind - Cast A Spell
TTITLE2=The Mooche - Hot Smoke And Sassafras
TTITLE3=Crushed Butler - My Son's Alive
TTITLE4=Chicken Shack - Going Down
TTITLE5=Cycle - Father Of Time
TTITLE6=The Deviants - I'm Coming Home
TTITLE7=Pink Fairies - Do It
TTITLE8=Factory - Time Machine
TTITLE9=The Groundhogs - Cherry Red
TTITLE10=Wicked Lady - I'm A Freak
TTITLE11=Charge - Rock My Soul
TTITLE12=Hawkwind Zoo - Sweet Mistress Of Pain
TTITLE13=Stonehouse - Nightmare
TTITLE14=Iron Maiden - Falling
TTITLE15=Barnabus - Apocalypse
EXTD=
EXTT0=
EXTT1=
EXTT2=
EXTT3=
EXTT4=
EXTT5=
EXTT6=
EXTT7=
EXTT8=
EXTT9=
EXTT10=
EXTT11=
EXTT12=
EXTT13=
EXTT14=
EXTT15=
PLAYORDER=
